Coordinates
version=1
nRows=27
nColumns=38
inDegrees=no

Units are S.I. units (second, meters, Newtons, ...)
If the header above contains a line with 'inDegrees', this indicates whether rotational values are in degrees (yes) or radians (no).

endheader
time	pelvis_tilt	pelvis_list	pelvis_rotation	pelvis_tx	pelvis_ty	pelvis_tz	hip_flexion_r	hip_adduction_r	hip_rotation_r	knee_angle_r	ankle_angle_r	subtalar_angle_r	mtp_angle_r	hip_flexion_l	hip_adduction_l	hip_rotation_l	knee_angle_l	ankle_angle_l	subtalar_angle_l	mtp_angle_l	lumbar_extension	lumbar_bending	lumbar_rotation	arm_flex_r	arm_add_r	arm_rot_r	elbow_flex_r	pro_sup_r	wrist_flex_r	wrist_dev_r	arm_flex_l	arm_add_l	arm_rot_l	elbow_flex_l	pro_sup_l	wrist_flex_l	wrist_dev_l
0	2.52624	1.38152	-0.988534	0.796361	-0.898564	0.961464	0.419275	0.0684855	-0.279435	0.402179	0.225543	0	0	-0.2599	-0.0423647	-0.180007	0	-0.677254	0	0	-0.319913	0.144613	0.0111073	0.27551	-0.364365	0.0114092	1.23026	1.00893	0	0	0.232993	-0.395641	0.024014	1.23686	0.879801	0	0
0.01	2.53804	1.38615	-1.00259	0.796642	-0.887077	0.959183	0.42668	0.0680648	-0.284165	0.371817	0.22297	0	0	-0.271146	-0.0364135	-0.187092	0	-0.677159	0	0	-0.317401	0.140914	0.0134965	0.277062	-0.363968	0.0132216	1.22752	1.00049	0	0	0.235134	-0.395175	0.0261466	1.23223	0.882011	0	0
0.02	2.536	1.38921	-1.00353	0.79682	-0.874597	0.956758	0.42899	0.0718915	-0.287513	0.334677	0.216981	0	0	-0.281726	-0.0335901	-0.235081	0	-0.615538	0	0	-0.313781	0.141263	0.0160345	0.278259	-0.365664	0.0177785	1.22665	0.987335	0	0	0.23388	-0.39243	0.0246679	1.22865	0.883653	0	0
0.03	2.52752	1.38837	-0.996054	0.796907	-0.862117	0.954411	0.421517	0.0810374	-0.2799	0.284389	0.20339	0	0	-0.298547	-0.0333389	-0.25497	0	-0.425909	0	0	-0.313703	0.145572	0.017523	0.281906	-0.367839	0.0231006	1.22514	0.975154	0	0	0.233619	-0.389576	0.0227781	1.22535	0.884735	0	0
0.04	2.49922	1.38761	-0.966449	0.79653	-0.849747	0.95224	0.383407	0.105783	-0.210128	0.162944	0.161388	0	0	-0.31243	-0.0367386	-0.261167	0	-0.286486	0	0	-0.312044	0.154714	0.0167567	0.287755	-0.370936	0.0304604	1.22179	0.959624	0	0	0.233465	-0.384929	0.0200482	1.21999	0.884787	0	0
0.05	2.5257	1.40025	-0.994478	0.797121	-0.836895	0.947974	0.42799	0.0824859	-0.283755	0.223948	0.1997	0	0	-0.320326	-0.0230526	-0.270214	0	-0.156392	0	0	-0.301197	0.143556	0.0158216	0.288921	-0.371417	0.0376695	1.22015	0.937043	0	0	0.232934	-0.386939	0.0204957	1.21938	0.884755	0	0
0.06	2.48472	1.40939	-0.960143	0.797488	-0.823805	0.94451	0.398465	0.104479	-0.194061	0.110859	0.156371	0	0	-0.324781	-0.0197015	-0.291208	0	-0.0102385	0	0	-0.28742	0.146224	0.0204896	0.293002	-0.379593	0.0595865	1.21578	0.88888	0	0	0.23012	-0.383273	0.0185982	1.21341	0.888293	0	0
0.07	2.52262	1.39749	-0.986452	0.797106	-0.810622	0.94312	0.364087	0.108374	-0.184027	0.0566205	0.134393	0	0	-0.355235	-0.025023	-0.275547	0	-0.0847235	0	0	-0.300995	0.1517	0.015163	0.293355	-0.370951	0.0310939	1.21184	0.99843	0	0	0.238731	-0.383684	0.0271676	1.20858	0.868972	0	0
0.08	2.53451	1.41034	-1.00165	0.798256	-0.797308	0.938609	0.413709	0.0899368	-0.254705	0.141673	0.186782	0	0	-0.361251	-0.0142177	-0.283504	0	0.0490347	0	0	-0.287978	0.14189	0.0195782	0.290603	-0.36926	0.0276872	1.21136	0.997191	0	0	0.240982	-0.386572	0.0332283	1.2068	0.866734	0	0
0.09	2.52133	1.40766	-0.982226	0.797788	-0.78318	0.936176	0.361585	0.106584	-0.16637	0.0328985	0.137532	0	0	-0.378924	-0.0184882	-0.279721	0	0.155612	0	0	-0.286092	0.150127	0.0166143	0.290821	-0.370485	0.0257927	1.21062	0.99672	0	0	0.242151	-0.383757	0.0356445	1.20205	0.866504	0	0
0.1	2.53619	1.41959	-0.998967	0.799066	-0.769382	0.931897	0.41337	0.0873182	-0.237045	0.14153	0.198261	0	0	-0.385464	-0.00948042	-0.278177	0	0.243619	0	0	-0.273966	0.140524	0.0188161	0.289413	-0.368048	0.0249431	1.2097	0.997925	0	0	0.242605	-0.386479	0.0378035	1.20308	0.866592	0	0
0.11	2.52176	1.41151	-0.983282	0.798877	-0.753286	0.930086	0.354005	0.107403	-0.140087	0.0491417	0.147776	0	0	-0.41258	-0.0149982	-0.255676	0	0.324421	0	0	-0.272348	0.152554	0.017244	0.28853	-0.369739	0.0268198	1.2072	1.0019	0	0	0.231249	-0.381182	0.0317423	1.20059	0.867024	0	0
0.12	2.51312	1.41489	-0.969483	0.799223	-0.738453	0.926963	0.356631	0.105732	-0.133121	0.0783316	0.158054	0	0	-0.423769	-0.0166414	-0.244245	0	0.398488	0	0	-0.264591	0.154459	0.0116517	0.289444	-0.368969	0.0290031	1.20507	1.00517	0	0	0.227067	-0.381586	0.027568	1.20355	0.866437	0	0
0.13	2.81467	1.43264	-1.2615	0.798765	-0.72757	0.928936	0.348721	0.05518	-0.105563	0.0990487	0.157239	0	0	-0.523599	0.0108031	0.511707	0.0218107	-0.698132	0	0	-0.28304	0.103396	-0.00473802	0.304909	-0.349953	0.0176744	1.1879	1.01219	0	0	0.246487	-0.391092	0.0269084	1.19878	0.870362	0	0
0.14	2.45934	1.41412	-0.912408	0.800489	-0.705634	0.921204	0.348014	0.115616	-0.120416	0.123194	0.160822	0	0	-0.454145	-0.0297669	-0.380925	0.0251238	0.523599	0	0	-0.248211	0.167233	0.00960635	0.282923	-0.370798	0.0279474	1.20906	1.00632	0	0	0.219977	-0.382183	0.0253343	1.20621	0.87215	0	0
0.15	3.00189	1.42663	-1.44791	0.801065	-0.69503	0.924083	0.390403	0.0117909	-0.2282	0.283232	0.208482	0	0	-0.523599	0.0498149	0.345253	0.123853	-0.698132	0	0	-0.281092	0.0784692	-0.00286768	0.293978	-0.351242	0.0213265	1.19509	0.943452	0	0	0.245345	-0.394483	0.0310151	1.19637	0.884936	0	0
0.16	2.96112	1.41543	-1.40464	0.802587	-0.680607	0.923766	0.372231	0.0214261	-0.230074	0.282553	0.144565	0	0	-0.494212	0.0431184	0.213152	0.237887	-0.698132	0	0	-0.292909	0.0879752	0.00313423	0.294097	-0.345808	0.000256067	1.19291	1.03134	0	0	0.25338	-0.392756	0.0364256	1.19213	0.878325	0	0
0.17	2.83043	1.42996	-1.27557	0.805046	-0.667745	0.921515	0.399957	0.0361959	-0.239965	0.311796	0.0907666	0	0	-0.404594	0.0105895	0.0357856	0.4062	-0.698132	0	0	-0.277248	0.104211	0.0120963	0.296706	-0.345332	-0.00139914	1.19135	1.02935	0	0	0.25676	-0.389583	0.035867	1.18967	0.879047	0	0
0.18	2.67415	1.43821	-1.1248	0.806757	-0.654674	0.920673	0.428361	0.048909	-0.252448	0.358097	0.0670583	0	0	-0.346441	-0.0201739	-0.0259987	0.517563	-0.698132	0	0	-0.265457	0.122759	0.0214559	0.304226	-0.348278	0.00625976	1.1863	1.02836	0	0	0.256623	-0.385332	0.0318352	1.18842	0.883597	0	0
0.19	2.50956	1.44244	-0.964225	0.807932	-0.641548	0.920531	0.454342	0.0578977	-0.26594	0.408085	0.0662254	0	0	-0.293497	-0.0474674	-0.0532431	0.617753	-0.698132	0	0	-0.25331	0.142509	0.0263056	0.313726	-0.354621	0.0211964	1.18013	1.02571	0	0	0.253675	-0.381997	0.0282849	1.18837	0.891957	0	0
0.2	2.3819	1.44064	-0.838062	0.808288	-0.627807	0.921183	0.468529	0.064466	-0.275377	0.44897	0.066184	0	0	-0.249461	-0.0682043	-0.0554711	0.707266	-0.698132	0	0	-0.245789	0.160711	0.026746	0.322764	-0.36219	0.0391504	1.17516	1.01628	0	0	0.249937	-0.381021	0.026549	1.18922	0.899038	0	0
0.21	2.31175	1.43596	-0.764671	0.80754	-0.614371	0.923225	0.468557	0.0651843	-0.282745	0.473185	0.0561682	0	0	-0.205985	-0.0783275	-0.0540464	0.777075	-0.698132	0	0	-0.245393	0.176418	0.0230872	0.329746	-0.369268	0.0540138	1.1727	1.00009	0	0	0.247807	-0.381062	0.0278852	1.19014	0.900674	0	0
0.22	2.25429	1.43158	-0.707315	0.808524	-0.600686	0.924542	0.464075	0.0735849	-0.283452	0.484258	0.0320882	0	0	-0.16846	-0.0900379	-0.0396826	0.854767	-0.698132	0	0	-0.243745	0.186481	0.0227798	0.332101	-0.373004	0.0641787	1.17526	0.975026	0	0	0.245774	-0.384349	0.0297517	1.19181	0.897655	0	0
0.23	2.19982	1.43069	-0.654936	0.809965	-0.587307	0.925547	0.459079	0.0825309	-0.280461	0.486309	0.00117602	0	0	-0.126798	-0.0952303	-0.0206823	0.930172	-0.698132	0	0	-0.239888	0.191696	0.0254623	0.330236	-0.376441	0.0718362	1.18298	0.937203	0	0	0.243394	-0.387489	0.0303925	1.19573	0.894978	0	0
0.24	2.18875	1.42556	-0.644107	0.811483	-0.574009	0.927411	0.439532	0.0934883	-0.279181	0.473592	-0.0357831	0	0	-0.0965812	-0.101732	-0.00823602	0.994011	-0.698132	0	0	-0.24454	0.195529	0.0295588	0.325244	-0.373603	0.0580533	1.19075	0.978536	0	0	0.244047	-0.389247	0.0305408	1.2001	0.890826	0	0
0.25	2.17365	1.42444	-0.628965	0.813005	-0.560996	0.928897	0.422018	0.103109	-0.273606	0.458487	-0.0631972	0	0	-0.0612265	-0.103199	0.0067927	1.05697	-0.698132	0	0	-0.245701	0.195727	0.0336413	0.318722	-0.373057	0.0489444	1.20021	0.996872	0	0	0.244445	-0.390898	0.0301608	1.20648	0.886412	0	0
0.26	2.16422	1.4225	-0.617017	0.8143	-0.5483	0.930581	0.403021	0.113256	-0.26445	0.444724	-0.0698401	0	0	-0.0249041	-0.10463	0.0211758	1.11841	-0.698132	0	0	-0.248151	0.196243	0.0364232	0.312162	-0.373754	0.0410147	1.20979	1.00584	0	0	0.245855	-0.392245	0.0299562	1.21383	0.88236	0	0
